<mxfile host="app.diagrams.net" modified="2022-08-09T06:08:11.855Z" agent="5.0 (Windows NT 10.0; Win64; x64) AppleWebKit/537.36 (KHTML, like Gecko) Chrome/104.0.5112.81 Safari/537.36 Edg/104.0.1293.47" etag="WiGIDCzEYBFuQKVsxOpb" version="20.2.3" type="github">
  <diagram name="Page-1" id="bfe91b75-5d2c-26a0-9c1d-138518896778">
    <mxGraphModel dx="1354" dy="1576" grid="1" gridSize="10" guides="1" tooltips="1" connect="1" arrows="1" fold="1" page="1" pageScale="1" pageWidth="1100" pageHeight="850" background="none" math="0" shadow="0">
      <root>
        <mxCell id="0" />
        <mxCell id="1" parent="0" />
        <mxCell id="kw6kMB2n_E4hMTKtBwWy-3" style="edgeStyle=orthogonalEdgeStyle;rounded=0;orthogonalLoop=1;jettySize=auto;html=1;fontFamily=Tahoma;fontSize=11;endArrow=none;endFill=0;fontStyle=0" edge="1" parent="1" source="kw6kMB2n_E4hMTKtBwWy-5">
          <mxGeometry relative="1" as="geometry">
            <mxPoint x="720.5" y="281" as="targetPoint" />
          </mxGeometry>
        </mxCell>
        <mxCell id="kw6kMB2n_E4hMTKtBwWy-4" style="edgeStyle=orthogonalEdgeStyle;rounded=0;orthogonalLoop=1;jettySize=auto;html=1;entryX=0.5;entryY=0;entryDx=0;entryDy=0;entryPerimeter=0;fontFamily=Tahoma;fontSize=11;endArrow=none;endFill=0;fontStyle=0" edge="1" parent="1" source="kw6kMB2n_E4hMTKtBwWy-5" target="kw6kMB2n_E4hMTKtBwWy-42">
          <mxGeometry relative="1" as="geometry" />
        </mxCell>
        <mxCell id="kw6kMB2n_E4hMTKtBwWy-5" value="Platform Database&lt;br&gt;(172.16.40.1)&lt;br style=&quot;font-size: 11px;&quot;&gt;(10.231.27.1)&lt;br&gt;8Core 32GB &lt;br&gt;100GB&lt;br&gt;500GB" style="sketch=0;pointerEvents=1;shadow=0;dashed=0;html=1;strokeColor=none;fillColor=#505050;labelPosition=center;verticalLabelPosition=bottom;verticalAlign=top;outlineConnect=0;align=center;shape=mxgraph.office.servers.virtual_database_server;fontFamily=Tahoma;fontSize=11;fontStyle=1" vertex="1" parent="1">
          <mxGeometry x="700" y="311" width="41" height="56" as="geometry" />
        </mxCell>
        <mxCell id="kw6kMB2n_E4hMTKtBwWy-6" value="Redmine &lt;br&gt;(IssueTracker)&lt;br&gt;" style="sketch=0;pointerEvents=1;shadow=0;dashed=0;html=1;strokeColor=none;fillColor=#505050;labelPosition=center;verticalLabelPosition=bottom;verticalAlign=top;outlineConnect=0;align=center;shape=mxgraph.office.servers.virtual_server;fontFamily=Tahoma;fontSize=11;fontStyle=1" vertex="1" parent="1">
          <mxGeometry x="903" y="460" width="28" height="52" as="geometry" />
        </mxCell>
        <mxCell id="kw6kMB2n_E4hMTKtBwWy-7" style="edgeStyle=orthogonalEdgeStyle;rounded=0;orthogonalLoop=1;jettySize=auto;html=1;fontFamily=Tahoma;fontSize=11;endArrow=none;endFill=0;fontStyle=0" edge="1" parent="1" source="kw6kMB2n_E4hMTKtBwWy-9">
          <mxGeometry relative="1" as="geometry">
            <mxPoint x="917" y="281" as="targetPoint" />
          </mxGeometry>
        </mxCell>
        <mxCell id="kw6kMB2n_E4hMTKtBwWy-8" style="edgeStyle=orthogonalEdgeStyle;rounded=0;orthogonalLoop=1;jettySize=auto;html=1;fontFamily=Tahoma;fontSize=11;endArrow=none;endFill=0;" edge="1" parent="1" source="kw6kMB2n_E4hMTKtBwWy-9" target="kw6kMB2n_E4hMTKtBwWy-6">
          <mxGeometry relative="1" as="geometry" />
        </mxCell>
        <mxCell id="kw6kMB2n_E4hMTKtBwWy-9" value="LDAP&lt;br&gt;(172.16.40.3)&lt;br&gt;(10.231.27.3)&lt;br&gt;8Core 32GB&lt;br&gt;300GB&lt;br&gt;300GB" style="sketch=0;pointerEvents=1;shadow=0;dashed=0;html=1;strokeColor=none;fillColor=#505050;labelPosition=center;verticalLabelPosition=bottom;verticalAlign=top;outlineConnect=0;align=center;shape=mxgraph.office.servers.virtual_server;fontFamily=Tahoma;fontSize=11;fontStyle=1" vertex="1" parent="1">
          <mxGeometry x="903" y="311" width="28" height="52" as="geometry" />
        </mxCell>
        <mxCell id="kw6kMB2n_E4hMTKtBwWy-10" style="edgeStyle=orthogonalEdgeStyle;rounded=0;orthogonalLoop=1;jettySize=auto;html=1;fontFamily=Tahoma;fontSize=11;endArrow=none;endFill=0;fontStyle=0" edge="1" parent="1" source="kw6kMB2n_E4hMTKtBwWy-11">
          <mxGeometry relative="1" as="geometry">
            <mxPoint x="1016" y="281" as="targetPoint" />
          </mxGeometry>
        </mxCell>
        <mxCell id="kw6kMB2n_E4hMTKtBwWy-11" value="Gitlab&lt;br&gt;(172.16.40.1)&lt;br&gt;(10.231.27.4)&lt;br&gt;8Core 32GB&lt;br&gt;300GB&lt;br&gt;300GB" style="sketch=0;pointerEvents=1;shadow=0;dashed=0;html=1;strokeColor=none;fillColor=#505050;labelPosition=center;verticalLabelPosition=bottom;verticalAlign=top;outlineConnect=0;align=center;shape=mxgraph.office.servers.virtual_server;fontFamily=Tahoma;fontSize=11;fontStyle=1" vertex="1" parent="1">
          <mxGeometry x="1002" y="311" width="28" height="52" as="geometry" />
        </mxCell>
        <mxCell id="kw6kMB2n_E4hMTKtBwWy-12" value="" style="shape=link;html=1;rounded=0;fontFamily=Tahoma;fontSize=11;fontStyle=1;fillColor=#dae8fc;strokeColor=#6c8ebf;" edge="1" parent="1">
          <mxGeometry width="100" relative="1" as="geometry">
            <mxPoint x="410" y="281" as="sourcePoint" />
            <mxPoint x="1160" y="281" as="targetPoint" />
          </mxGeometry>
        </mxCell>
        <mxCell id="kw6kMB2n_E4hMTKtBwWy-13" value="172.16.40.254/24" style="edgeLabel;html=1;align=center;verticalAlign=middle;resizable=0;points=[];fontSize=11;fontFamily=Tahoma;fontStyle=1" vertex="1" connectable="0" parent="kw6kMB2n_E4hMTKtBwWy-12">
          <mxGeometry x="0.6492" y="1" relative="1" as="geometry">
            <mxPoint as="offset" />
          </mxGeometry>
        </mxCell>
        <mxCell id="kw6kMB2n_E4hMTKtBwWy-14" value="" style="shape=link;html=1;rounded=0;fontFamily=Tahoma;fontSize=11;fontStyle=1;fillColor=#dae8fc;strokeColor=#6c8ebf;" edge="1" parent="1">
          <mxGeometry width="100" relative="1" as="geometry">
            <mxPoint x="410" y="50" as="sourcePoint" />
            <mxPoint x="1160" y="50" as="targetPoint" />
          </mxGeometry>
        </mxCell>
        <mxCell id="kw6kMB2n_E4hMTKtBwWy-15" value="172.29.20.254/24" style="edgeLabel;html=1;align=center;verticalAlign=middle;resizable=0;points=[];fontSize=11;fontFamily=Tahoma;fontStyle=1" vertex="1" connectable="0" parent="kw6kMB2n_E4hMTKtBwWy-14">
          <mxGeometry x="0.6492" y="1" relative="1" as="geometry">
            <mxPoint as="offset" />
          </mxGeometry>
        </mxCell>
        <mxCell id="kw6kMB2n_E4hMTKtBwWy-16" style="edgeStyle=orthogonalEdgeStyle;rounded=0;orthogonalLoop=1;jettySize=auto;html=1;fontFamily=Tahoma;fontSize=11;endArrow=none;endFill=0;fontStyle=0" edge="1" parent="1" source="kw6kMB2n_E4hMTKtBwWy-17">
          <mxGeometry relative="1" as="geometry">
            <mxPoint x="720.5" y="50" as="targetPoint" />
          </mxGeometry>
        </mxCell>
        <mxCell id="kw6kMB2n_E4hMTKtBwWy-17" value="Worker#1&lt;br&gt;(172.29.20.2)&lt;br&gt;(10.231.27.22)&lt;br&gt;16Core 32GB &lt;br&gt;150GB" style="sketch=0;pointerEvents=1;shadow=0;dashed=0;html=1;strokeColor=none;labelPosition=center;verticalLabelPosition=bottom;verticalAlign=top;outlineConnect=0;align=center;shape=mxgraph.office.servers.virtual_server;fillColor=#2072B8;fontFamily=Tahoma;fontSize=11;fontStyle=0" vertex="1" parent="1">
          <mxGeometry x="706.5" y="80" width="28" height="52" as="geometry" />
        </mxCell>
        <mxCell id="kw6kMB2n_E4hMTKtBwWy-18" style="edgeStyle=orthogonalEdgeStyle;rounded=0;orthogonalLoop=1;jettySize=auto;html=1;fontFamily=Tahoma;fontSize=11;endArrow=none;endFill=0;fontStyle=0" edge="1" parent="1" source="kw6kMB2n_E4hMTKtBwWy-19">
          <mxGeometry relative="1" as="geometry">
            <mxPoint x="824" y="50" as="targetPoint" />
          </mxGeometry>
        </mxCell>
        <mxCell id="kw6kMB2n_E4hMTKtBwWy-19" value="Worker#2&lt;br&gt;(172.29.20.3)&lt;br&gt;(10.231.27.23)&lt;br&gt;16Core 32GB &lt;br&gt;150GB" style="sketch=0;pointerEvents=1;shadow=0;dashed=0;html=1;strokeColor=none;labelPosition=center;verticalLabelPosition=bottom;verticalAlign=top;outlineConnect=0;align=center;shape=mxgraph.office.servers.virtual_server;fillColor=#2072B8;fontFamily=Tahoma;fontSize=11;fontStyle=0" vertex="1" parent="1">
          <mxGeometry x="810" y="80" width="28" height="52" as="geometry" />
        </mxCell>
        <mxCell id="kw6kMB2n_E4hMTKtBwWy-20" style="edgeStyle=orthogonalEdgeStyle;rounded=0;orthogonalLoop=1;jettySize=auto;html=1;fontFamily=Tahoma;fontSize=11;endArrow=none;endFill=0;fontStyle=0" edge="1" parent="1" source="kw6kMB2n_E4hMTKtBwWy-21">
          <mxGeometry relative="1" as="geometry">
            <mxPoint x="924" y="50" as="targetPoint" />
          </mxGeometry>
        </mxCell>
        <mxCell id="kw6kMB2n_E4hMTKtBwWy-21" value="Worker#3&lt;br&gt;(172.29.20.4)&lt;br&gt;(10.231.27.24)&lt;br&gt;16Core 32GB &lt;br&gt;150GB" style="sketch=0;pointerEvents=1;shadow=0;dashed=0;html=1;strokeColor=none;labelPosition=center;verticalLabelPosition=bottom;verticalAlign=top;outlineConnect=0;align=center;shape=mxgraph.office.servers.virtual_server;fillColor=#2072B8;fontFamily=Tahoma;fontSize=11;fontStyle=0" vertex="1" parent="1">
          <mxGeometry x="910" y="80" width="28" height="52" as="geometry" />
        </mxCell>
        <mxCell id="kw6kMB2n_E4hMTKtBwWy-22" style="edgeStyle=orthogonalEdgeStyle;rounded=0;orthogonalLoop=1;jettySize=auto;html=1;fontFamily=Tahoma;fontSize=11;endArrow=none;endFill=0;fontStyle=0" edge="1" parent="1" source="kw6kMB2n_E4hMTKtBwWy-23">
          <mxGeometry relative="1" as="geometry">
            <mxPoint x="1034" y="50" as="targetPoint" />
          </mxGeometry>
        </mxCell>
        <mxCell id="kw6kMB2n_E4hMTKtBwWy-23" value="Worker#4&lt;br&gt;(172.29.20.5)&lt;br&gt;(10.231.27.22)&lt;br&gt;16Core 32GB&lt;br&gt;150GB" style="sketch=0;pointerEvents=1;shadow=0;dashed=0;html=1;strokeColor=none;labelPosition=center;verticalLabelPosition=bottom;verticalAlign=top;outlineConnect=0;align=center;shape=mxgraph.office.servers.virtual_server;fillColor=#2072B8;fontFamily=Tahoma;fontSize=11;fontStyle=0" vertex="1" parent="1">
          <mxGeometry x="1020" y="80" width="28" height="52" as="geometry" />
        </mxCell>
        <mxCell id="kw6kMB2n_E4hMTKtBwWy-24" style="edgeStyle=orthogonalEdgeStyle;rounded=0;orthogonalLoop=1;jettySize=auto;html=1;fontFamily=Tahoma;fontSize=11;endArrow=none;endFill=0;fontStyle=0" edge="1" parent="1" source="kw6kMB2n_E4hMTKtBwWy-25">
          <mxGeometry relative="1" as="geometry">
            <mxPoint x="819" y="281" as="targetPoint" />
          </mxGeometry>
        </mxCell>
        <mxCell id="kw6kMB2n_E4hMTKtBwWy-25" value="K8S&lt;br&gt;(172.16.40.2)&lt;br&gt;(10.231.27.2)&lt;br&gt;8Core 32GB&lt;br&gt;100GB&lt;br&gt;500GB" style="sketch=0;pointerEvents=1;shadow=0;dashed=0;html=1;strokeColor=none;fillColor=#505050;labelPosition=center;verticalLabelPosition=bottom;verticalAlign=top;outlineConnect=0;align=center;shape=mxgraph.office.servers.virtual_server;fontFamily=Tahoma;fontSize=11;fontStyle=0" vertex="1" parent="1">
          <mxGeometry x="805" y="311" width="28" height="52" as="geometry" />
        </mxCell>
        <mxCell id="kw6kMB2n_E4hMTKtBwWy-26" style="edgeStyle=orthogonalEdgeStyle;rounded=0;orthogonalLoop=1;jettySize=auto;html=1;fontFamily=Tahoma;fontSize=11;endArrow=none;endFill=0;fontStyle=0" edge="1" parent="1" source="kw6kMB2n_E4hMTKtBwWy-27">
          <mxGeometry relative="1" as="geometry">
            <mxPoint x="1114" y="281" as="targetPoint" />
          </mxGeometry>
        </mxCell>
        <mxCell id="kw6kMB2n_E4hMTKtBwWy-27" value="K8S&lt;br&gt;(172.16.40.5)&lt;br&gt;(10.231.27.5)&lt;br&gt;8Core 32GB&lt;br&gt;300GB&lt;br&gt;300GB" style="sketch=0;pointerEvents=1;shadow=0;dashed=0;html=1;strokeColor=none;fillColor=#505050;labelPosition=center;verticalLabelPosition=bottom;verticalAlign=top;outlineConnect=0;align=center;shape=mxgraph.office.servers.virtual_server;fontFamily=Tahoma;fontSize=11;fontStyle=0" vertex="1" parent="1">
          <mxGeometry x="1100" y="311" width="28" height="52" as="geometry" />
        </mxCell>
        <mxCell id="kw6kMB2n_E4hMTKtBwWy-28" style="edgeStyle=orthogonalEdgeStyle;rounded=0;orthogonalLoop=1;jettySize=auto;html=1;fontFamily=Tahoma;fontSize=11;endArrow=none;endFill=0;fontStyle=0" edge="1" parent="1" source="kw6kMB2n_E4hMTKtBwWy-29">
          <mxGeometry relative="1" as="geometry">
            <mxPoint x="534" y="281" as="targetPoint" />
          </mxGeometry>
        </mxCell>
        <mxCell id="kw6kMB2n_E4hMTKtBwWy-29" value="Bastion&lt;br&gt;(172.16.40.6)&lt;br&gt;(10.231.27.6)&lt;br&gt;2Core 4GB&lt;br&gt;50G" style="sketch=0;pointerEvents=1;shadow=0;dashed=0;html=1;strokeColor=none;fillColor=#505050;labelPosition=center;verticalLabelPosition=bottom;verticalAlign=top;outlineConnect=0;align=center;shape=mxgraph.office.servers.virtual_server;fontFamily=Tahoma;fontSize=11;fontStyle=0" vertex="1" parent="1">
          <mxGeometry x="520" y="311" width="28" height="52" as="geometry" />
        </mxCell>
        <mxCell id="kw6kMB2n_E4hMTKtBwWy-30" style="edgeStyle=orthogonalEdgeStyle;rounded=0;orthogonalLoop=1;jettySize=auto;html=1;fontFamily=Tahoma;fontSize=11;endArrow=none;endFill=0;fontStyle=0" edge="1" parent="1" source="kw6kMB2n_E4hMTKtBwWy-31">
          <mxGeometry relative="1" as="geometry">
            <mxPoint x="544" y="50" as="targetPoint" />
          </mxGeometry>
        </mxCell>
        <mxCell id="kw6kMB2n_E4hMTKtBwWy-31" value="Router #1&lt;br&gt;(172.29.20.6)&lt;br&gt;(10.231.27.26)&lt;br&gt;2Core 8GB&lt;br&gt;150GB" style="sketch=0;pointerEvents=1;shadow=0;dashed=0;html=1;strokeColor=none;labelPosition=center;verticalLabelPosition=bottom;verticalAlign=top;outlineConnect=0;align=center;shape=mxgraph.office.servers.virtual_server;fillColor=#2072B8;fontFamily=Tahoma;fontSize=11;fontStyle=0" vertex="1" parent="1">
          <mxGeometry x="530" y="80" width="28" height="52" as="geometry" />
        </mxCell>
        <mxCell id="kw6kMB2n_E4hMTKtBwWy-32" style="edgeStyle=orthogonalEdgeStyle;rounded=0;orthogonalLoop=1;jettySize=auto;html=1;fontFamily=Tahoma;fontSize=11;endArrow=none;endFill=0;fontStyle=0" edge="1" parent="1" source="kw6kMB2n_E4hMTKtBwWy-33">
          <mxGeometry relative="1" as="geometry">
            <mxPoint x="624" y="50" as="targetPoint" />
          </mxGeometry>
        </mxCell>
        <mxCell id="kw6kMB2n_E4hMTKtBwWy-33" value="Router #2&lt;br&gt;(-)&lt;br&gt;2Core 8GB&lt;br&gt;150GB" style="sketch=0;pointerEvents=1;shadow=0;dashed=0;html=1;strokeColor=none;labelPosition=center;verticalLabelPosition=bottom;verticalAlign=top;outlineConnect=0;align=center;shape=mxgraph.office.servers.virtual_server;fillColor=#2072B8;fontFamily=Tahoma;fontSize=11;fontStyle=0" vertex="1" parent="1">
          <mxGeometry x="610" y="80" width="28" height="52" as="geometry" />
        </mxCell>
        <mxCell id="kw6kMB2n_E4hMTKtBwWy-34" style="edgeStyle=orthogonalEdgeStyle;rounded=0;orthogonalLoop=1;jettySize=auto;html=1;exitX=0.8555;exitY=0.145;exitDx=0;exitDy=0;exitPerimeter=0;fontFamily=Tahoma;fontSize=11;endArrow=none;endFill=0;fontStyle=0" edge="1" parent="1" source="kw6kMB2n_E4hMTKtBwWy-36">
          <mxGeometry relative="1" as="geometry">
            <mxPoint x="430" y="50" as="targetPoint" />
            <mxPoint x="356.5" y="160" as="sourcePoint" />
          </mxGeometry>
        </mxCell>
        <mxCell id="kw6kMB2n_E4hMTKtBwWy-35" style="edgeStyle=orthogonalEdgeStyle;rounded=0;orthogonalLoop=1;jettySize=auto;html=1;exitX=0.7;exitY=0.86;exitDx=0;exitDy=0;exitPerimeter=0;fontFamily=Tahoma;fontSize=11;endArrow=none;endFill=0;fontStyle=0" edge="1" parent="1" source="kw6kMB2n_E4hMTKtBwWy-36">
          <mxGeometry relative="1" as="geometry">
            <mxPoint x="430" y="280" as="targetPoint" />
            <mxPoint x="356.5" y="187.5" as="sourcePoint" />
          </mxGeometry>
        </mxCell>
        <mxCell id="kw6kMB2n_E4hMTKtBwWy-36" value="Firewall&lt;br&gt;IPS&lt;br&gt;WAF&lt;br&gt;NAT(223.253.99.52)" style="sketch=0;points=[[0.5,0,0],[1,0.5,0],[0.5,1,0],[0,0.5,0],[0.145,0.145,0],[0.8555,0.145,0],[0.855,0.8555,0],[0.145,0.855,0]];verticalLabelPosition=bottom;html=1;verticalAlign=top;aspect=fixed;align=center;pointerEvents=1;shape=mxgraph.cisco19.rect;prIcon=router_with_firewall;fillColor=#FAFAFA;strokeColor=#005073;fontFamily=Tahoma;fontSize=11;fontStyle=1" vertex="1" parent="1">
          <mxGeometry x="340" y="150" width="30" height="30" as="geometry" />
        </mxCell>
        <mxCell id="kw6kMB2n_E4hMTKtBwWy-37" style="edgeStyle=orthogonalEdgeStyle;rounded=0;orthogonalLoop=1;jettySize=auto;html=1;entryX=0;entryY=0.5;entryDx=0;entryDy=0;entryPerimeter=0;fontFamily=Tahoma;fontSize=11;endArrow=none;endFill=0;fontStyle=0" edge="1" parent="1" source="kw6kMB2n_E4hMTKtBwWy-38" target="kw6kMB2n_E4hMTKtBwWy-36">
          <mxGeometry relative="1" as="geometry" />
        </mxCell>
        <mxCell id="kw6kMB2n_E4hMTKtBwWy-38" value="외부 공용망" style="sketch=0;pointerEvents=1;shadow=0;dashed=0;html=1;strokeColor=#b85450;fillColor=#f8cecc;labelPosition=center;verticalLabelPosition=bottom;verticalAlign=top;outlineConnect=0;align=center;shape=mxgraph.office.sites.website_public;fontFamily=Tahoma;fontSize=11;fontStyle=1" vertex="1" parent="1">
          <mxGeometry x="180" y="141" width="58" height="48" as="geometry" />
        </mxCell>
        <mxCell id="kw6kMB2n_E4hMTKtBwWy-39" value="" style="shape=link;html=1;rounded=0;fontFamily=Tahoma;fontSize=11;fillColor=#f8cecc;strokeColor=#b85450;fontStyle=1" edge="1" parent="1">
          <mxGeometry width="100" relative="1" as="geometry">
            <mxPoint x="410" y="620" as="sourcePoint" />
            <mxPoint x="1160" y="620" as="targetPoint" />
          </mxGeometry>
        </mxCell>
        <mxCell id="kw6kMB2n_E4hMTKtBwWy-40" value="GRS&amp;nbsp; Network" style="edgeLabel;html=1;align=center;verticalAlign=middle;resizable=0;points=[];fontSize=11;fontFamily=Tahoma;fontStyle=1" vertex="1" connectable="0" parent="kw6kMB2n_E4hMTKtBwWy-39">
          <mxGeometry x="0.6492" y="1" relative="1" as="geometry">
            <mxPoint as="offset" />
          </mxGeometry>
        </mxCell>
        <mxCell id="kw6kMB2n_E4hMTKtBwWy-41" style="edgeStyle=orthogonalEdgeStyle;rounded=0;orthogonalLoop=1;jettySize=auto;html=1;fontFamily=Tahoma;fontSize=11;endArrow=none;endFill=0;fontStyle=0;exitX=0.5;exitY=1;exitDx=0;exitDy=0;exitPerimeter=0;startArrow=none;" edge="1" parent="1" source="kw6kMB2n_E4hMTKtBwWy-51">
          <mxGeometry relative="1" as="geometry">
            <mxPoint x="645" y="620" as="targetPoint" />
          </mxGeometry>
        </mxCell>
        <mxCell id="kw6kMB2n_E4hMTKtBwWy-42" value="그룹 공용망&lt;br&gt;Firewall" style="sketch=0;points=[[0.5,0,0],[1,0.5,0],[0.5,1,0],[0,0.5,0],[0.145,0.145,0],[0.8555,0.145,0],[0.855,0.8555,0],[0.145,0.855,0]];verticalLabelPosition=bottom;html=1;verticalAlign=top;aspect=fixed;align=center;pointerEvents=1;shape=mxgraph.cisco19.rect;prIcon=router_with_firewall;fillColor=#FAFAFA;strokeColor=#005073;fontFamily=Tahoma;fontSize=11;fontStyle=1" vertex="1" parent="1">
          <mxGeometry x="630" y="420" width="30" height="30" as="geometry" />
        </mxCell>
        <mxCell id="kw6kMB2n_E4hMTKtBwWy-43" value="Redmine &lt;br&gt;(IssueTracker)&lt;br&gt;" style="sketch=0;pointerEvents=1;shadow=0;dashed=0;html=1;strokeColor=none;fillColor=#505050;labelPosition=center;verticalLabelPosition=bottom;verticalAlign=top;outlineConnect=0;align=center;shape=mxgraph.office.servers.virtual_server;fontFamily=Tahoma;fontSize=11;fontStyle=1" vertex="1" parent="1">
          <mxGeometry x="903" y="460" width="28" height="52" as="geometry" />
        </mxCell>
        <mxCell id="kw6kMB2n_E4hMTKtBwWy-44" style="edgeStyle=orthogonalEdgeStyle;rounded=0;orthogonalLoop=1;jettySize=auto;html=1;endArrow=none;endFill=0;" edge="1" parent="1" source="kw6kMB2n_E4hMTKtBwWy-45">
          <mxGeometry relative="1" as="geometry">
            <mxPoint x="1120" y="50" as="targetPoint" />
          </mxGeometry>
        </mxCell>
        <mxCell id="kw6kMB2n_E4hMTKtBwWy-45" value="NAS&lt;br&gt;(172.29.20.7)&lt;br&gt;(10.231.27.7)&lt;br&gt;1TiB * 1 EA&lt;br&gt;100GiB * 6 EA&lt;br&gt;300GiB * 4EA&lt;br&gt;50GiB * 20 EA" style="sketch=0;pointerEvents=1;shadow=0;dashed=0;html=1;strokeColor=none;labelPosition=center;verticalLabelPosition=bottom;verticalAlign=top;outlineConnect=0;align=center;shape=mxgraph.office.servers.virtual_database_server;fillColor=#2072B8;" vertex="1" parent="1">
          <mxGeometry x="1210" y="150" width="41" height="56" as="geometry" />
        </mxCell>
        <mxCell id="kw6kMB2n_E4hMTKtBwWy-46" value="NiFi&lt;br&gt;(환경 구성/테스트용)" style="sketch=0;pointerEvents=1;shadow=0;dashed=0;html=1;strokeColor=none;fillColor=#505050;labelPosition=center;verticalLabelPosition=bottom;verticalAlign=top;outlineConnect=0;align=center;shape=mxgraph.office.servers.virtual_server;fontFamily=Tahoma;fontSize=11;fontStyle=1" vertex="1" parent="1">
          <mxGeometry x="1002" y="460" width="28" height="52" as="geometry" />
        </mxCell>
        <mxCell id="kw6kMB2n_E4hMTKtBwWy-47" value="NiFi-Registry&lt;br&gt;" style="sketch=0;pointerEvents=1;shadow=0;dashed=0;html=1;strokeColor=none;fillColor=#505050;labelPosition=center;verticalLabelPosition=bottom;verticalAlign=top;outlineConnect=0;align=center;shape=mxgraph.office.servers.virtual_server;fontFamily=Tahoma;fontSize=11;fontStyle=1" vertex="1" parent="1">
          <mxGeometry x="1080" y="460" width="28" height="52" as="geometry" />
        </mxCell>
        <mxCell id="kw6kMB2n_E4hMTKtBwWy-48" value="" style="endArrow=none;html=1;rounded=0;" edge="1" parent="1" source="kw6kMB2n_E4hMTKtBwWy-46" target="kw6kMB2n_E4hMTKtBwWy-11">
          <mxGeometry width="50" height="50" relative="1" as="geometry">
            <mxPoint x="1020" y="440" as="sourcePoint" />
            <mxPoint x="1070" y="390" as="targetPoint" />
          </mxGeometry>
        </mxCell>
        <mxCell id="kw6kMB2n_E4hMTKtBwWy-49" value="" style="endArrow=none;html=1;rounded=0;entryX=0.5;entryY=0;entryDx=0;entryDy=0;entryPerimeter=0;" edge="1" parent="1" target="kw6kMB2n_E4hMTKtBwWy-47">
          <mxGeometry width="50" height="50" relative="1" as="geometry">
            <mxPoint x="1016" y="360" as="sourcePoint" />
            <mxPoint x="1050" y="460" as="targetPoint" />
          </mxGeometry>
        </mxCell>
        <mxCell id="kw6kMB2n_E4hMTKtBwWy-50" value="10.67.45.254/24" style="text;html=1;strokeColor=none;fillColor=none;align=center;verticalAlign=middle;whiteSpace=wrap;rounded=0;" vertex="1" parent="1">
          <mxGeometry x="910" y="620" width="60" height="30" as="geometry" />
        </mxCell>
        <mxCell id="kw6kMB2n_E4hMTKtBwWy-51" value="그룹 공용&lt;br&gt;Route" style="sketch=0;aspect=fixed;pointerEvents=1;shadow=0;dashed=0;html=1;strokeColor=none;labelPosition=center;verticalLabelPosition=bottom;verticalAlign=top;align=center;fillColor=#00188D;shape=mxgraph.mscae.enterprise.gateway" vertex="1" parent="1">
          <mxGeometry x="630" y="512" width="30" height="30" as="geometry" />
        </mxCell>
        <mxCell id="kw6kMB2n_E4hMTKtBwWy-52" value="" style="edgeStyle=orthogonalEdgeStyle;rounded=0;orthogonalLoop=1;jettySize=auto;html=1;fontFamily=Tahoma;fontSize=11;endArrow=none;endFill=0;fontStyle=0;exitX=0.5;exitY=1;exitDx=0;exitDy=0;exitPerimeter=0;" edge="1" parent="1" source="kw6kMB2n_E4hMTKtBwWy-42" target="kw6kMB2n_E4hMTKtBwWy-51">
          <mxGeometry relative="1" as="geometry">
            <mxPoint x="645" y="620" as="targetPoint" />
            <mxPoint x="645" y="450" as="sourcePoint" />
          </mxGeometry>
        </mxCell>
        <mxCell id="kw6kMB2n_E4hMTKtBwWy-53" value="GRS&lt;br&gt;Route" style="sketch=0;aspect=fixed;pointerEvents=1;shadow=0;dashed=0;html=1;strokeColor=none;labelPosition=center;verticalLabelPosition=bottom;verticalAlign=top;align=center;fillColor=#00188D;shape=mxgraph.mscae.enterprise.gateway" vertex="1" parent="1">
          <mxGeometry x="711" y="600" width="30" height="30" as="geometry" />
        </mxCell>
        <mxCell id="kw6kMB2n_E4hMTKtBwWy-54" value="&lt;font style=&quot;font-size: 9px;&quot;&gt;본사 내부망&lt;/font&gt;" style="sketch=0;aspect=fixed;pointerEvents=1;shadow=0;dashed=0;html=1;strokeColor=none;labelPosition=center;verticalLabelPosition=bottom;verticalAlign=top;align=center;fillColor=#00188D;shape=mxgraph.mscae.enterprise.workstation_client" vertex="1" parent="1">
          <mxGeometry x="610" y="-294.5" width="39" height="39" as="geometry" />
        </mxCell>
        <mxCell id="kw6kMB2n_E4hMTKtBwWy-55" value="&lt;font style=&quot;font-size: 9px;&quot;&gt;LDCC&lt;br style=&quot;font-size: 9px;&quot;&gt;Route&lt;/font&gt;" style="sketch=0;aspect=fixed;pointerEvents=1;shadow=0;dashed=0;html=1;strokeColor=none;labelPosition=center;verticalLabelPosition=bottom;verticalAlign=top;align=center;fillColor=#00188D;shape=mxgraph.mscae.enterprise.gateway" vertex="1" parent="1">
          <mxGeometry x="470" y="-290" width="30" height="30" as="geometry" />
        </mxCell>
        <mxCell id="kw6kMB2n_E4hMTKtBwWy-56" value="&lt;font style=&quot;font-size: 9px;&quot;&gt;LDCC 방화벽&lt;/font&gt;" style="sketch=0;points=[[0.5,0,0],[1,0.5,0],[0.5,1,0],[0,0.5,0],[0.145,0.145,0],[0.8555,0.145,0],[0.855,0.8555,0],[0.145,0.855,0]];verticalLabelPosition=bottom;html=1;verticalAlign=top;aspect=fixed;align=center;pointerEvents=1;shape=mxgraph.cisco19.rect;prIcon=router_with_firewall;fillColor=#FAFAFA;strokeColor=#005073;fontFamily=Tahoma;fontSize=11;fontStyle=1" vertex="1" parent="1">
          <mxGeometry x="467" y="-180" width="35" height="35" as="geometry" />
        </mxCell>
        <mxCell id="kw6kMB2n_E4hMTKtBwWy-57" value="&lt;font style=&quot;font-size: 9px;&quot;&gt;L.CLOUD 2.0&lt;br style=&quot;font-size: 9px;&quot;&gt;방화벽&lt;/font&gt;" style="sketch=0;points=[[0.5,0,0],[1,0.5,0],[0.5,1,0],[0,0.5,0],[0.145,0.145,0],[0.8555,0.145,0],[0.855,0.8555,0],[0.145,0.855,0]];verticalLabelPosition=bottom;html=1;verticalAlign=top;aspect=fixed;align=center;pointerEvents=1;shape=mxgraph.cisco19.rect;prIcon=router_with_firewall;fillColor=#FAFAFA;strokeColor=#005073;fontFamily=Tahoma;fontSize=11;fontStyle=1" vertex="1" parent="1">
          <mxGeometry x="467" y="-71" width="36" height="36" as="geometry" />
        </mxCell>
        <mxCell id="kw6kMB2n_E4hMTKtBwWy-58" value="" style="endArrow=none;html=1;rounded=0;entryX=0;entryY=0.5;entryDx=0;entryDy=0;entryPerimeter=0;" edge="1" parent="1" target="kw6kMB2n_E4hMTKtBwWy-54">
          <mxGeometry width="50" height="50" relative="1" as="geometry">
            <mxPoint x="500" y="-275.5" as="sourcePoint" />
            <mxPoint x="620" y="-200.5" as="targetPoint" />
          </mxGeometry>
        </mxCell>
        <mxCell id="kw6kMB2n_E4hMTKtBwWy-59" value="" style="endArrow=none;html=1;rounded=0;entryX=0.5;entryY=1;entryDx=0;entryDy=0;entryPerimeter=0;" edge="1" parent="1" target="kw6kMB2n_E4hMTKtBwWy-55">
          <mxGeometry width="50" height="50" relative="1" as="geometry">
            <mxPoint x="485" y="50" as="sourcePoint" />
            <mxPoint x="430" y="-180" as="targetPoint" />
          </mxGeometry>
        </mxCell>
        <mxCell id="kw6kMB2n_E4hMTKtBwWy-60" value="" style="edgeStyle=orthogonalEdgeStyle;rounded=0;orthogonalLoop=1;jettySize=auto;html=1;" edge="1" parent="1" source="kw6kMB2n_E4hMTKtBwWy-61" target="kw6kMB2n_E4hMTKtBwWy-63">
          <mxGeometry relative="1" as="geometry" />
        </mxCell>
        <mxCell id="kw6kMB2n_E4hMTKtBwWy-61" value="&lt;font size=&quot;1&quot;&gt;본사 VPN&lt;br&gt;&lt;/font&gt;" style="sketch=0;aspect=fixed;pointerEvents=1;shadow=0;dashed=0;html=1;strokeColor=none;labelPosition=center;verticalLabelPosition=bottom;verticalAlign=top;align=center;fillColor=#00188D;shape=mxgraph.mscae.enterprise.workstation_client" vertex="1" parent="1">
          <mxGeometry x="611" y="-215" width="39" height="39" as="geometry" />
        </mxCell>
        <mxCell id="kw6kMB2n_E4hMTKtBwWy-62" value="" style="edgeStyle=orthogonalEdgeStyle;rounded=0;orthogonalLoop=1;jettySize=auto;html=1;" edge="1" parent="1" source="kw6kMB2n_E4hMTKtBwWy-63" target="kw6kMB2n_E4hMTKtBwWy-56">
          <mxGeometry relative="1" as="geometry" />
        </mxCell>
        <mxCell id="kw6kMB2n_E4hMTKtBwWy-63" value="&lt;font size=&quot;1&quot;&gt;VPN 방화벽&lt;/font&gt;" style="sketch=0;points=[[0.5,0,0],[1,0.5,0],[0.5,1,0],[0,0.5,0],[0.145,0.145,0],[0.8555,0.145,0],[0.855,0.8555,0],[0.145,0.855,0]];verticalLabelPosition=bottom;html=1;verticalAlign=top;aspect=fixed;align=center;pointerEvents=1;shape=mxgraph.cisco19.rect;prIcon=router_with_firewall;fillColor=#FAFAFA;strokeColor=#005073;fontFamily=Tahoma;fontSize=11;fontStyle=1" vertex="1" parent="1">
          <mxGeometry x="536" y="-213" width="35" height="35" as="geometry" />
        </mxCell>
        <mxCell id="kw6kMB2n_E4hMTKtBwWy-64" value="10.131.96.0/19&lt;br style=&quot;font-size: 5px;&quot;&gt;10.131.144.0/20&lt;br style=&quot;font-size: 5px;&quot;&gt;10.131.160.0/23&lt;br style=&quot;font-size: 5px;&quot;&gt;10.131.205.0/24&lt;br style=&quot;font-size: 5px;&quot;&gt;10.131.162.0/24" style="text;html=1;strokeColor=none;fillColor=none;align=center;verticalAlign=middle;whiteSpace=wrap;rounded=0;fontSize=5;" vertex="1" parent="1">
          <mxGeometry x="650" y="-300" width="100" height="70" as="geometry" />
        </mxCell>
        <mxCell id="kw6kMB2n_E4hMTKtBwWy-65" value="10.131.79.0/24&lt;br&gt;10.131.80.0/24&lt;br&gt;10.131.81.0/24" style="text;html=1;strokeColor=none;fillColor=none;align=center;verticalAlign=middle;whiteSpace=wrap;rounded=0;fontSize=5;" vertex="1" parent="1">
          <mxGeometry x="650" y="-215" width="100" height="70" as="geometry" />
        </mxCell>
      </root>
    </mxGraphModel>
  </diagram>
</mxfile>
